<svg width="15" height="12" viewBox="0 0 15 12" fill="none" xmlns="http://www.w3.org/2000/svg">
<path d="M12.4245 -1.12579e-07L11.6508 0.79241L12.9054 2.07734L10.3961 2.07734C8.28366 2.07734 6.56595 3.83654 6.56595 6C6.56595 7.56195 5.35526 8.8019 3.83015 8.8019L-3.84743e-07 8.8019L-4.33733e-07 9.92266L3.83015 9.92266C5.9426 9.92266 7.6603 8.16346 7.6603 6C7.6603 4.43805 8.871 3.1981 10.3961 3.1981L12.9054 3.1981L11.6508 4.48304L12.4245 5.27545L15 2.63772L12.4245 -1.12579e-07ZM-9.08036e-08 2.07734L-1.39793e-07 3.1981L3.83015 3.1981C4.6331 3.1981 5.34245 3.54763 5.8403 4.10106C5.98486 3.74061 6.16905 3.40119 6.38748 3.08756C5.70863 2.46174 4.81356 2.07734 3.83015 2.07734L-9.08036e-08 2.07734ZM12.4245 6.72455L11.6508 7.51696L12.9054 8.8019L10.3961 8.8019C9.59315 8.8019 8.88379 8.45237 8.38595 7.89894C8.2414 8.25939 8.05721 8.59881 7.83878 8.91244C8.51763 9.53826 9.4127 9.92266 10.3961 9.92266L12.9054 9.92266L11.6508 11.2076L12.4245 12L15 9.36228L12.4245 6.72455Z" fill="white"/>
</svg>
